<svg width="29" height="29" viewBox="0 0 29 29" fill="none" xmlns="http://www.w3.org/2000/svg">
<path d="M11.6014 21.3102C11.7716 21.3102 11.9007 21.3045 11.9858 21.2931C12.0856 21.2729 12.1756 21.2193 12.2411 21.1412C12.3261 21.0518 12.3687 20.9225 12.3687 20.7521L12.363 19.9613C12.3588 19.4572 12.3574 19.0568 12.3574 18.7628L12.0907 18.8097C11.8773 18.8433 11.6613 18.8566 11.4454 18.8495C11.1742 18.8446 10.9038 18.8176 10.637 18.7685C10.3538 18.7157 10.0874 18.5959 9.85975 18.4192C9.62115 18.2385 9.44307 17.9894 9.34917 17.705L9.23287 17.4366C9.13505 17.2253 9.0122 17.0265 8.86696 16.8445C8.73656 16.6579 8.56279 16.5059 8.36063 16.4015L8.27979 16.3447C8.22412 16.3037 8.17363 16.256 8.12945 16.2027C8.08657 16.1543 8.05119 16.0998 8.0245 16.0409C8.0018 15.9869 8.02024 15.9415 8.08123 15.9074C8.18827 15.8643 8.30373 15.8463 8.41878 15.8548L8.65138 15.8903C8.80739 15.9202 8.99886 16.0139 9.2272 16.1686C9.45413 16.3248 9.64276 16.525 9.79026 16.7735C9.96896 17.0916 10.1831 17.3344 10.4356 17.5005C10.6584 17.6579 10.9232 17.7449 11.1958 17.7504C11.4511 17.7504 11.6723 17.732 11.8581 17.6936C12.039 17.6561 12.2147 17.597 12.3815 17.5176C12.451 16.9993 12.6396 16.5989 12.9488 16.3206C12.5474 16.2808 12.1496 16.2106 11.7588 16.1104C11.3773 16.0052 11.0104 15.8525 10.6668 15.6561C10.3068 15.4606 9.9888 15.1962 9.73069 14.8779C9.48391 14.567 9.2811 14.1609 9.12083 13.6568C8.95373 13.0905 8.87386 12.5021 8.88398 11.9117C8.88398 10.9746 9.19033 10.1752 9.80161 9.51632C9.51511 8.81062 9.54206 8.01972 9.88245 7.14363C10.108 7.07264 10.4413 7.12517 10.8823 7.29982C11.3234 7.47447 11.6482 7.62356 11.8524 7.74852C12.0581 7.87205 12.2212 7.9757 12.346 8.0609C13.0724 7.85893 13.8231 7.75764 14.577 7.75988C15.3428 7.75988 16.0874 7.85927 16.8079 8.06232L17.2476 7.78259C17.5511 7.59801 17.9071 7.42619 18.317 7.27142C18.7283 7.11523 19.0417 7.07264 19.2587 7.14363C19.6076 8.01972 19.6388 8.81062 19.3509 9.5149C19.9636 10.1752 20.27 10.9732 20.27 11.9117C20.27 12.5706 20.1905 13.1542 20.0317 13.6625C19.8728 14.1708 19.6672 14.5769 19.4161 14.8836C19.1538 15.1987 18.8343 15.4613 18.4744 15.6575C18.1308 15.854 17.7639 16.0066 17.3823 16.1118C16.9911 16.2116 16.5928 16.2814 16.191 16.3206C16.5938 16.6685 16.7952 17.2194 16.7952 17.9719V20.7507C16.7952 20.8828 16.815 20.9893 16.8533 21.0716C16.8713 21.1109 16.8971 21.146 16.929 21.1751C16.9609 21.2041 16.9984 21.2264 17.0391 21.2406C17.1242 21.2704 17.2008 21.2903 17.266 21.2974C17.3327 21.3059 17.4263 21.3102 17.5497 21.3102H11.6028H11.6014Z" fill="#E5E5E5"/>
<path d="M5.67313 2.83984C4.92083 2.83984 4.19933 3.13904 3.66738 3.67161C3.13542 4.20419 2.83657 4.92651 2.83657 5.67969V22.7188C2.83657 23.4719 3.13542 24.1942 3.66738 24.7268C4.19933 25.2594 4.92083 25.5586 5.67313 25.5586H22.6925C23.4448 25.5586 24.1663 25.2594 24.6983 24.7268C25.2302 24.1942 25.5291 23.4719 25.5291 22.7188V5.67969C25.5291 4.92651 25.2302 4.20419 24.6983 3.67161C24.1663 3.13904 23.4448 2.83984 22.6925 2.83984H5.67313ZM5.67313 0H22.6925C24.1971 0 25.6401 0.598394 26.704 1.66354C27.7679 2.72869 28.3657 4.17334 28.3657 5.67969V22.7188C28.3657 24.2251 27.7679 25.6697 26.704 26.7349C25.6401 27.8 24.1971 28.3984 22.6925 28.3984H5.67313C4.16852 28.3984 2.72554 27.8 1.66162 26.7349C0.597703 25.6697 0 24.2251 0 22.7188V5.67969C0 4.17334 0.597703 2.72869 1.66162 1.66354C2.72554 0.598394 4.16852 0 5.67313 0Z" fill="#E5E5E5"/>
</svg>
