<svg width="30" height="29" viewBox="0 0 30 29" fill="none" xmlns="http://www.w3.org/2000/svg">
<path d="M12.389 21.3102C12.5592 21.3102 12.6883 21.3045 12.7734 21.2931C12.8732 21.2729 12.9632 21.2193 13.0286 21.1412C13.1137 21.0517 13.1563 20.9225 13.1563 20.7521L13.1506 19.9612C13.1464 19.4572 13.1449 19.0568 13.1449 18.7628L12.8783 18.8097C12.6649 18.8433 12.4489 18.8566 12.233 18.8494C11.9618 18.8446 11.6914 18.8176 11.4246 18.7685C11.1414 18.7157 10.875 18.5959 10.6474 18.4192C10.4087 18.2385 10.2307 17.9894 10.1368 17.705L10.0205 17.4366C9.92265 17.2253 9.7998 17.0265 9.65455 16.8445C9.52415 16.6579 9.35039 16.5059 9.14823 16.4015L9.06739 16.3447C9.01171 16.3036 8.96123 16.256 8.91705 16.2027C8.87417 16.1543 8.83879 16.0998 8.81209 16.0408C8.7894 15.9869 8.80784 15.9415 8.86883 15.9074C8.97587 15.8643 9.09133 15.8463 9.20638 15.8548L9.43898 15.8903C9.59499 15.9202 9.78645 16.0139 10.0148 16.1686C10.2417 16.3248 10.4304 16.525 10.5779 16.7735C10.7566 17.0916 10.9707 17.3344 11.2232 17.5005C11.446 17.6579 11.7108 17.7449 11.9834 17.7504C12.2387 17.7504 12.4599 17.732 12.6457 17.6936C12.8266 17.6561 13.0023 17.597 13.1691 17.5176C13.2386 16.9993 13.4272 16.5989 13.7364 16.3206C13.335 16.2808 12.9372 16.2106 12.5464 16.1104C12.1649 16.0051 11.798 15.8525 11.4544 15.656C11.0944 15.4606 10.7764 15.1962 10.5183 14.8779C10.2715 14.567 10.0687 14.1609 9.90843 13.6568C9.74133 13.0905 9.66146 12.5021 9.67157 11.9117C9.67157 10.9746 9.97792 10.1752 10.5892 9.51631C10.3027 8.81061 10.3297 8.01971 10.67 7.14362C10.8956 7.07263 11.2288 7.12516 11.6699 7.29981C12.111 7.47446 12.4358 7.62356 12.64 7.74851C12.8457 7.87204 13.0088 7.9757 13.1336 8.06089C13.86 7.85892 14.6107 7.75763 15.3646 7.75987C16.1304 7.75987 16.875 7.85926 17.5955 8.06231L18.0352 7.78259C18.3387 7.598 18.6947 7.42619 19.1046 7.27142C19.5159 7.11522 19.8293 7.07263 20.0463 7.14362C20.3952 8.01971 20.4264 8.81061 20.1385 9.51489C20.7512 10.1752 21.0575 10.9731 21.0575 11.9117C21.0575 12.5706 20.9781 13.1541 20.8193 13.6625C20.6604 14.1708 20.4548 14.5769 20.2037 14.8836C19.9414 15.1987 19.6219 15.4613 19.262 15.6575C18.9184 15.854 18.5515 16.0066 18.1699 16.1118C17.7787 16.2116 17.3804 16.2814 16.9786 16.3206C17.3814 16.6685 17.5828 17.2194 17.5828 17.9719V20.7507C17.5828 20.8828 17.6026 20.9893 17.6409 21.0716C17.6589 21.1109 17.6847 21.146 17.7166 21.1751C17.7485 21.2041 17.786 21.2264 17.8267 21.2406C17.9118 21.2704 17.9884 21.2903 18.0536 21.2974C18.1203 21.3059 18.2139 21.3102 18.3373 21.3102H12.3904H12.389Z" fill="#311213"/>
<path d="M6.46073 2.83984C5.70842 2.83984 4.98693 3.13904 4.45497 3.67161C3.92301 4.20419 3.62416 4.92651 3.62416 5.67969V22.7188C3.62416 23.4719 3.92301 24.1942 4.45497 24.7268C4.98693 25.2594 5.70842 25.5586 6.46073 25.5586H23.4801C24.2324 25.5586 24.9539 25.2594 25.4859 24.7268C26.0178 24.1942 26.3167 23.4719 26.3167 22.7188V5.67969C26.3167 4.92651 26.0178 4.20419 25.4859 3.67161C24.9539 3.13904 24.2324 2.83984 23.4801 2.83984H6.46073ZM6.46073 0H23.4801C24.9847 0 26.4277 0.598394 27.4916 1.66354C28.5555 2.72869 29.1532 4.17334 29.1532 5.67969V22.7188C29.1532 24.2251 28.5555 25.6697 27.4916 26.7349C26.4277 27.8 24.9847 28.3984 23.4801 28.3984H6.46073C4.95612 28.3984 3.51314 27.8 2.44922 26.7349C1.3853 25.6697 0.787598 24.2251 0.787598 22.7188V5.67969C0.787598 4.17334 1.3853 2.72869 2.44922 1.66354C3.51314 0.598394 4.95612 0 6.46073 0Z" fill="#311213"/>
</svg>
