<svg width="30" height="29" viewBox="0 0 30 29" fill="none" xmlns="http://www.w3.org/2000/svg">
<path d="M26.8734 0.584045H3.06749C1.80876 0.584045 0.787598 1.60639 0.787598 2.86657V26.7C0.787598 27.9601 1.80876 28.9825 3.06749 28.9825H26.8734C28.1321 28.9825 29.1532 27.9601 29.1532 26.7V2.86657C29.1532 1.60639 28.1321 0.584045 26.8734 0.584045ZM26.8734 26.7106C10.9957 26.7071 3.05685 26.7035 3.05685 26.7C3.0604 10.8039 3.06394 2.85592 3.06749 2.85592C18.9452 2.85947 26.884 2.86302 26.884 2.86657C26.8805 18.7626 26.8769 26.7106 26.8734 26.7106ZM4.99281 11.2299H9.20156V24.7831H4.99281V11.2299ZM7.09896 9.37691C8.44278 9.37691 9.5384 8.28357 9.5384 6.93465C9.5384 6.61392 9.4753 6.29634 9.35271 6.00003C9.23012 5.70372 9.05043 5.43449 8.8239 5.2077C8.59738 4.98092 8.32846 4.80102 8.03249 4.67829C7.73652 4.55555 7.41931 4.49238 7.09896 4.49238C6.7786 4.49238 6.46139 4.55555 6.16542 4.67829C5.86945 4.80102 5.60053 4.98092 5.37401 5.2077C5.14748 5.43449 4.96779 5.70372 4.8452 6.00003C4.72261 6.29634 4.65951 6.61392 4.65951 6.93465C4.65596 8.28357 5.74804 9.37691 7.09896 9.37691ZM16.0448 18.0775C16.0448 16.3097 16.3816 14.5987 18.5693 14.5987C20.7251 14.5987 20.757 16.6185 20.757 18.1911V24.7831H24.9622V17.3498C24.9622 13.7006 24.1751 10.8927 19.9167 10.8927C17.8708 10.8927 16.4986 12.018 15.9349 13.0829H15.8781V11.2299H11.8396V24.7831H16.0448V18.0775Z" fill="#311213"/>
</svg>
