<svg width="29" height="29" viewBox="0 0 29 29" fill="none" xmlns="http://www.w3.org/2000/svg">
<path d="M26.0858 0H2.27989C1.02116 0 0 1.02234 0 2.28252V26.1159C0 27.3761 1.02116 28.3984 2.27989 28.3984H26.0858C27.3445 28.3984 28.3657 27.3761 28.3657 26.1159V2.28252C28.3657 1.02234 27.3445 0 26.0858 0ZM26.0858 26.1266C10.2081 26.123 2.26925 26.1195 2.26925 26.1159C2.2728 10.2199 2.27634 2.27187 2.27989 2.27187C18.1576 2.27542 26.0964 2.27897 26.0964 2.28252C26.0929 18.1785 26.0893 26.1266 26.0858 26.1266ZM4.20521 10.6459H8.41396V24.199H4.20521V10.6459ZM6.31136 8.79287C7.65518 8.79287 8.7508 7.69953 8.7508 6.3506C8.7508 6.02988 8.68771 5.7123 8.56511 5.41599C8.44252 5.11968 8.26283 4.85044 8.03631 4.62366C7.80978 4.39687 7.54086 4.21698 7.24489 4.09424C6.94893 3.97151 6.63171 3.90833 6.31136 3.90833C5.991 3.90833 5.67379 3.97151 5.37782 4.09424C5.08185 4.21698 4.81293 4.39687 4.58641 4.62366C4.35989 4.85044 4.1802 5.11968 4.0576 5.41599C3.93501 5.7123 3.87191 6.02988 3.87191 6.3506C3.86837 7.69953 4.96044 8.79287 6.31136 8.79287ZM15.2572 17.4934C15.2572 15.7256 15.594 14.0146 17.7817 14.0146C19.9375 14.0146 19.9694 16.0345 19.9694 17.607V24.199H24.1746V16.7657C24.1746 13.1165 23.3875 10.3086 19.1291 10.3086C17.0832 10.3086 15.711 11.4339 15.1473 12.4989H15.0905V10.6459H11.052V24.199H15.2572V17.4934Z" fill="#E5E5E5"/>
</svg>
