<svg width="24" height="22" viewBox="0 0 24 22" fill="none" xmlns="http://www.w3.org/2000/svg">
<path d="M21.4875 1.51509C18.7781 -0.763034 14.5922 -0.420847 12 2.21821C9.40781 -0.420847 5.22188 -0.767722 2.5125 1.51509C-1.01249 4.48227 -0.496869 9.31977 2.01563 11.8838L10.2375 20.2604C10.7062 20.7385 11.3344 21.0057 12 21.0057C12.6703 21.0057 13.2937 20.7432 13.7625 20.2651L21.9844 11.8885C24.4922 9.32446 25.0172 4.48696 21.4875 1.51509ZM20.3812 10.3041L12.1594 18.6807C12.0469 18.7932 11.9531 18.7932 11.8406 18.6807L3.61875 10.3041C1.90782 8.5604 1.56094 5.2604 3.96094 3.24009C5.78438 1.70728 8.59687 1.93696 10.3594 3.73227L12 5.40571L13.6406 3.73227C15.4125 1.92759 18.225 1.70728 20.0391 3.2354C22.4344 5.25571 22.0781 8.57446 20.3812 10.3041Z" fill="white"/>
</svg>
