<svg width="40" height="40" viewBox="0 0 40 40" fill="none" xmlns="http://www.w3.org/2000/svg">
<path d="M20 3.60375C25.3402 3.60375 25.9727 3.62406 28.0816 3.72016C30.0316 3.80922 31.0906 4.135 31.7955 4.40891C32.7289 4.77172 33.3952 5.20516 34.095 5.905C34.795 6.60484 35.2283 7.27109 35.5911 8.20453C35.865 8.90938 36.1908 9.96844 36.2798 11.9183C36.3759 14.0273 36.3963 14.6598 36.3963 20C36.3963 25.3403 36.3759 25.9728 36.2798 28.0817C36.1908 30.0317 35.865 31.0906 35.5911 31.7955C35.2283 32.7289 34.7948 33.3953 34.095 34.0952C33.3952 34.795 32.7289 35.2284 31.7955 35.5911C31.0906 35.865 30.0316 36.1909 28.0816 36.2798C25.973 36.3761 25.3405 36.3964 20 36.3964C14.6594 36.3964 14.0269 36.3761 11.9183 36.2798C9.96828 36.1908 8.90938 35.865 8.20453 35.5911C7.27109 35.2284 6.60469 34.795 5.90484 34.0952C5.205 33.3952 4.77156 32.7289 4.40891 31.7955C4.135 31.0908 3.80906 30.0317 3.72016 28.0817C3.62391 25.9728 3.60359 25.3403 3.60359 20C3.60359 14.6598 3.62391 14.0273 3.72016 11.9184C3.80922 9.96844 4.135 8.90938 4.40891 8.20453C4.77156 7.27109 5.205 6.60484 5.90484 5.905C6.60484 5.205 7.27109 4.77172 8.20453 4.40891C8.90922 4.135 9.96828 3.80922 11.9183 3.72016C14.0272 3.62406 14.6597 3.60375 20 3.60375ZM20 0C14.5683 0 13.8872 0.0229687 11.7541 0.120312C9.62516 0.2175 8.17125 0.555625 6.89922 1.05C5.58391 1.56109 4.46859 2.245 3.35672 3.35687C2.24484 4.46875 1.56109 5.58406 1.05 6.89922C0.555469 8.17141 0.2175 9.62531 0.120312 11.7541C0.0229687 13.8872 0 14.5683 0 20C0 25.4317 0.0229687 26.1128 0.120312 28.2459C0.2175 30.3748 0.555469 31.8288 1.05 33.1008C1.56094 34.4159 2.24484 35.5314 3.35672 36.6433C4.46859 37.7552 5.58391 38.4389 6.89922 38.95C8.17141 39.4445 9.62516 39.7825 11.7539 39.8797C13.8872 39.977 14.5683 40 20 40C25.4317 40 26.1128 39.977 28.2459 39.8797C30.3747 39.7825 31.8286 39.4445 33.1006 38.95C34.4159 38.4391 35.5312 37.7552 36.6431 36.6433C37.755 35.5314 38.4389 34.4161 38.95 33.1008C39.4444 31.8286 39.7825 30.3748 39.8797 28.2461C39.977 26.1128 40 25.4317 40 20C40 14.5683 39.977 13.8872 39.8797 11.7541C39.7825 9.62531 39.4444 8.17141 38.95 6.89937C38.4389 5.58406 37.755 4.46875 36.6431 3.35687C35.5312 2.245 34.4159 1.56094 33.1008 1.05C31.8286 0.555625 30.3747 0.2175 28.2459 0.120312C26.1128 0.0229687 25.4317 0 20 0ZM20 9.72969C14.3278 9.72969 9.72969 14.3281 9.72969 20C9.72969 25.6722 14.3278 30.2703 20 30.2703C25.672 30.2703 30.2703 25.6722 30.2703 20C30.2703 14.328 25.672 9.72969 20 9.72969ZM20 26.6667C16.3181 26.6667 13.3333 23.6819 13.3333 20C13.3333 16.3181 16.3181 13.3333 20 13.3333C23.6819 13.3333 26.6667 16.3181 26.6667 20C26.6667 23.6819 23.6819 26.6667 20 26.6667ZM33.0759 9.32391C33.0759 10.6495 32.0016 11.7239 30.6759 11.7239C29.3505 11.7239 28.2759 10.6495 28.2759 9.32391C28.2759 7.99844 29.3505 6.92391 30.6759 6.92391C32.0016 6.92391 33.0759 7.99844 33.0759 9.32391Z" fill="white"/>
</svg>
