<svg width="29" height="29" viewBox="0 0 29 29" fill="none" xmlns="http://www.w3.org/2000/svg">
<path d="M14.1828 2.55852C17.9697 2.55852 18.4183 2.57294 19.9138 2.64117C21.2966 2.7044 22.0476 2.93569 22.5475 3.13015C23.2094 3.38773 23.6819 3.69546 24.1782 4.19232C24.6746 4.68918 24.9818 5.16219 25.2391 5.8249C25.4334 6.32531 25.6644 7.0772 25.7275 8.46151C25.7957 9.95887 25.8101 10.4079 25.8101 14.1992C25.8101 17.9906 25.7957 18.4397 25.7275 19.9369C25.6644 21.3213 25.4334 22.0731 25.2391 22.5735C24.9818 23.2362 24.6745 23.7094 24.1782 24.2062C23.6819 24.7031 23.2094 25.0108 22.5475 25.2683C22.0476 25.4627 21.2966 25.6942 19.9138 25.7573C18.4185 25.8256 17.97 25.84 14.1828 25.84C10.3956 25.84 9.94704 25.8256 8.45175 25.7573C7.06892 25.694 6.31801 25.4627 5.81817 25.2683C5.15623 25.0108 4.68366 24.7031 4.18737 24.2062C3.69108 23.7093 3.38371 23.2362 3.12654 22.5735C2.9323 22.0732 2.70116 21.3213 2.63812 19.9369C2.56986 18.4397 2.55546 17.9906 2.55546 14.1992C2.55546 10.4079 2.56986 9.95887 2.63812 8.46163C2.70127 7.0772 2.9323 6.32531 3.12654 5.8249C3.38371 5.16219 3.69108 4.68918 4.18737 4.19232C4.68377 3.69535 5.15623 3.38773 5.81817 3.13015C6.31789 2.93569 7.06892 2.7044 8.45175 2.64117C9.94726 2.57294 10.3958 2.55852 14.1828 2.55852ZM14.1828 0C10.331 0 9.84798 0.0163069 8.33529 0.0854172C6.8256 0.154417 5.79457 0.394472 4.89252 0.745459C3.95978 1.10832 3.16886 1.59386 2.38039 2.38325C1.59191 3.17264 1.10704 3.96447 0.744598 4.89818C0.393906 5.80138 0.154238 6.8336 0.0853186 8.34492C0.0162881 9.85936 0 10.3429 0 14.1992C0 18.0555 0.0162881 18.5391 0.0853186 20.0535C0.154238 21.565 0.393906 22.5972 0.744598 23.5003C1.10693 24.434 1.59191 25.2259 2.38039 26.0153C3.16886 26.8047 3.95978 27.2901 4.89252 27.653C5.79468 28.0041 6.8256 28.244 8.33518 28.313C9.84798 28.3821 10.331 28.3984 14.1828 28.3984C18.0347 28.3984 18.5177 28.3821 20.0304 28.313C21.5399 28.244 22.571 28.0041 23.473 27.653C24.4058 27.2902 25.1967 26.8047 25.9852 26.0153C26.7736 25.2259 27.2586 24.4341 27.6211 23.5003C27.9716 22.5971 28.2114 21.565 28.2803 20.0536C28.3494 18.5391 28.3657 18.0555 28.3657 14.1992C28.3657 10.3429 28.3494 9.85936 28.2803 8.34492C28.2114 6.8336 27.9716 5.80138 27.6211 4.89829C27.2586 3.96447 26.7736 3.17264 25.9852 2.38325C25.1967 1.59386 24.4058 1.1082 23.4731 0.745459C22.571 0.394472 21.5399 0.154417 20.0304 0.0854172C18.5177 0.0163069 18.0347 0 14.1828 0ZM14.1828 6.9077C10.1604 6.9077 6.89972 10.1724 6.89972 14.1992C6.89972 18.2262 10.1604 21.4907 14.1828 21.4907C18.2051 21.4907 21.4659 18.2262 21.4659 14.1992C21.4659 10.1723 18.2051 6.9077 14.1828 6.9077ZM14.1828 18.9323C11.5719 18.9323 9.45518 16.8132 9.45518 14.1992C9.45518 11.5852 11.5719 9.46611 14.1828 9.46611C16.7938 9.46611 18.9105 11.5852 18.9105 14.1992C18.9105 16.8132 16.7938 18.9323 14.1828 18.9323ZM23.4555 6.61961C23.4555 7.56075 22.6936 8.32351 21.7536 8.32351C20.8136 8.32351 20.0516 7.56075 20.0516 6.61961C20.0516 5.67858 20.8136 4.9157 21.7536 4.9157C22.6936 4.9157 23.4555 5.67858 23.4555 6.61961Z" fill="#E5E5E5"/>
</svg>
