<svg width="30" height="30" viewBox="0 0 30 30" fill="none" xmlns="http://www.w3.org/2000/svg">
<path d="M14.9704 3.35051C18.7573 3.35051 19.2059 3.36493 20.7014 3.43316C22.0842 3.49639 22.8352 3.72768 23.3351 3.92214C23.997 4.17973 24.4695 4.48745 24.9658 4.98431C25.4622 5.48117 25.7694 5.95418 26.0267 6.61689C26.2209 7.1173 26.452 7.86919 26.5151 9.25351C26.5833 10.7509 26.5977 11.1999 26.5977 14.9912C26.5977 18.7826 26.5833 19.2317 26.5151 20.7289C26.452 22.1133 26.2209 22.8651 26.0267 23.3655C25.7694 24.0282 25.4621 24.5014 24.9658 24.9982C24.4695 25.4951 23.997 25.8028 23.3351 26.0603C22.8352 26.2547 22.0842 26.4861 20.7014 26.5493C19.2061 26.6176 18.7576 26.632 14.9704 26.632C11.1832 26.632 10.7346 26.6176 9.23934 26.5493C7.85652 26.486 7.1056 26.2547 6.60577 26.0603C5.94383 25.8028 5.47125 25.4951 4.97497 24.9982C4.47868 24.5012 4.17131 24.0282 3.91413 23.3655C3.7199 22.8652 3.48876 22.1133 3.42571 20.7289C3.35746 19.2317 3.34305 18.7826 3.34305 14.9912C3.34305 11.1999 3.35746 10.7509 3.42571 9.25362C3.48887 7.86919 3.7199 7.1173 3.91413 6.61689C4.17131 5.95418 4.47868 5.48117 4.97497 4.98431C5.47136 4.48734 5.94383 4.17973 6.60577 3.92214C7.10549 3.72768 7.85652 3.49639 9.23934 3.43316C10.7349 3.36493 11.1834 3.35051 14.9704 3.35051ZM14.9704 0.791992C11.1186 0.791992 10.6356 0.808299 9.12289 0.877409C7.61319 0.946409 6.58217 1.18646 5.68012 1.53745C4.74738 1.90031 3.95646 2.38585 3.16799 3.17524C2.37951 3.96463 1.89463 4.75646 1.5322 5.69017C1.1815 6.59337 0.941836 7.62559 0.872916 9.13692C0.803886 10.6514 0.787598 11.1349 0.787598 14.9912C0.787598 18.8475 0.803886 19.3311 0.872916 20.8455C0.941836 22.3569 1.1815 23.3892 1.5322 24.2923C1.89452 25.226 2.37951 26.0179 3.16799 26.8073C3.95646 27.5967 4.74738 28.0821 5.68012 28.445C6.58228 28.7961 7.61319 29.036 9.12278 29.105C10.6356 29.1741 11.1186 29.1904 14.9704 29.1904C18.8223 29.1904 19.3053 29.1741 20.818 29.105C22.3275 29.036 23.3586 28.7961 24.2606 28.445C25.1934 28.0822 25.9843 27.5967 26.7728 26.8073C27.5612 26.0179 28.0462 25.2261 28.4086 24.2923C28.7592 23.3891 28.999 22.3569 29.0679 20.8456C29.137 19.3311 29.1532 18.8475 29.1532 14.9912C29.1532 11.1349 29.137 10.6514 29.0679 9.13692C28.999 7.62559 28.7592 6.59337 28.4086 5.69028C28.0462 4.75646 27.5612 3.96463 26.7728 3.17524C25.9843 2.38585 25.1934 1.9002 24.2607 1.53745C23.3586 1.18646 22.3275 0.946409 20.818 0.877409C19.3053 0.808299 18.8223 0.791992 14.9704 0.791992ZM14.9704 7.69969C10.948 7.69969 7.68732 10.9644 7.68732 14.9912C7.68732 19.0182 10.948 22.2827 14.9704 22.2827C18.9927 22.2827 22.2535 19.0182 22.2535 14.9912C22.2535 10.9643 18.9927 7.69969 14.9704 7.69969ZM14.9704 19.7243C12.3595 19.7243 10.2428 17.6052 10.2428 14.9912C10.2428 12.3772 12.3595 10.2581 14.9704 10.2581C17.5814 10.2581 19.6981 12.3772 19.6981 14.9912C19.6981 17.6052 17.5814 19.7243 14.9704 19.7243ZM24.2431 7.4116C24.2431 8.35274 23.4812 9.11551 22.5412 9.11551C21.6012 9.11551 20.8392 8.35274 20.8392 7.4116C20.8392 6.47057 21.6012 5.7077 22.5412 5.7077C23.4812 5.7077 24.2431 6.47057 24.2431 7.4116Z" fill="#311213"/>
</svg>
